<svg xmlns="http://www.w3.org/2000/svg" viewBox="0 0 149.67 197.29"><defs><style>.cls-1{fill:#00aee6;}.cls-2,.cls-3{fill:#fff;}.cls-3{font-size:21.83px;font-family:Share-Regular, Share;}.cls-4{letter-spacing:-0.01em;}.cls-5{letter-spacing:-0.01em;}</style></defs><title>Asset 1_OR</title><g id="Layer_2" data-name="Layer 2"><g id="Layer_1-2" data-name="Layer 1"><rect class="cls-1" width="149.67" height="197.29"/><path class="cls-2" d="M90.51,86.5a5,5,0,1,0-5.05-5,5,5,0,0,0,5.05,5M58.44,31.29l2.23-3.41V20.13H30.72V51.82H17.59c-4.73,10.86,7.6,39.52,7.6,39.52H41.57c.59-7,.56-15.58-1.85-22l13.45,9.52c4.35-5.9,13.43-9.95,23.92-9.95,14.73,0,26.66,8,26.66,17.81a12.4,12.4,0,0,1-1,4.66H108l25.19-39.52H58.44Zm13.43,2.86h19.5V22.83H71.87Zm0,14h19.5V36.78H71.87Zm21.38-14h19.5V22.83H93.25Zm0,14h19.5V36.78H93.25Z"/><text class="cls-3" transform="translate(16.51 127.1)">Ballast <tspan class="cls-4" x="65.21" y="0">W</tspan><tspan x="77.96" y="0">ater </tspan></text><text class="cls-3" transform="translate(16.51 148.1)">E<tspan class="cls-5" x="10.33" y="0">x</tspan><tspan x="20.15" y="0">emptions </tspan></text><text class="cls-3" transform="translate(16.51 169.1)">DST</text></g></g></svg>